<svg width="600" height="600" viewBox="0 0 600 600" fill="none" xmlns="http://www.w3.org/2000/svg">
<path d="M459.554 233.121C459.554 233.121 405.9 280.217 467.68 381.065C522.547 470.627 399.224 509.451 346.081 499.055C277.239 485.588 237.713 398.575 185.068 426.146C132.422 453.717 80.2674 328.782 156.846 282.81C252.106 225.622 190.969 192.39 199.525 150.458C205.666 120.364 293.048 73.8361 340.165 126.911C379.813 171.572 399.257 155.594 417.379 149.632C443.515 141.033 500.565 185.762 459.554 233.121Z" fill="#DEE9FF"/>
<path d="M307.639 286.193L290.061 358.297C289.408 360.971 289.289 363.747 289.71 366.467C290.13 369.187 291.083 371.798 292.513 374.15C293.943 376.501 295.822 378.548 298.043 380.174C300.264 381.799 302.784 382.971 305.458 383.622L392.884 404.936C395.132 429.617 415.557 431.441 423.616 432.287C423.695 432.291 423.774 432.269 423.839 432.224C423.905 432.18 423.954 432.114 423.978 432.039C424.003 431.963 424.002 431.881 423.975 431.807C423.948 431.732 423.898 431.668 423.831 431.625C418.044 428.097 416.317 418.427 415.931 410.554L422.421 412.136C425.095 412.789 427.871 412.908 430.591 412.488C433.311 412.067 435.922 411.115 438.274 409.685C440.626 408.255 442.673 406.375 444.298 404.154C445.923 401.933 447.095 399.413 447.746 396.739L465.324 324.635C465.977 321.961 466.096 319.185 465.676 316.465C465.255 313.744 464.303 311.134 462.873 308.782C461.443 306.43 459.564 304.383 457.342 302.758C455.121 301.133 452.601 299.961 449.927 299.31L332.965 270.795C330.291 270.143 327.514 270.023 324.794 270.444C322.074 270.864 319.464 271.817 317.112 273.247C314.76 274.677 312.713 276.556 311.088 278.777C309.462 280.999 308.291 283.518 307.639 286.193Z" fill="#A2BDFF"/>
<path d="M452.66 321.763L403.773 309.845C403.451 309.767 403.127 309.964 403.048 310.286L400.54 320.573C400.462 320.895 400.659 321.22 400.981 321.298L449.867 333.216C450.189 333.295 450.514 333.098 450.592 332.776L453.1 322.488C453.179 322.166 452.982 321.842 452.66 321.763Z" fill="white"/>
<path d="M445.679 350.396L313.224 318.105C312.902 318.026 312.578 318.224 312.499 318.546L309.991 328.833C309.913 329.155 310.11 329.48 310.432 329.558L442.887 361.849C443.209 361.928 443.533 361.731 443.612 361.409L446.12 351.121C446.198 350.799 446.001 350.475 445.679 350.396Z" fill="#D4E5FF"/>
<path d="M438.698 379.029L306.244 346.738C305.922 346.66 305.597 346.857 305.519 347.179L303.011 357.466C302.932 357.788 303.13 358.113 303.452 358.191L435.906 390.483C436.228 390.561 436.553 390.364 436.631 390.042L439.139 379.755C439.218 379.433 439.02 379.108 438.698 379.029Z" fill="#D4E5FF"/>
<path d="M356.862 199.698L385.607 292.008C386.674 295.431 387.056 299.031 386.732 302.601C386.407 306.172 385.382 309.644 383.715 312.818C382.048 315.993 379.772 318.808 377.017 321.103C374.262 323.397 371.081 325.126 367.658 326.191L255.734 361.044C254.829 393.316 228.422 397.357 218.014 399.114C217.911 399.127 217.806 399.106 217.716 399.053C217.626 399.001 217.557 398.919 217.518 398.822C217.48 398.726 217.475 398.619 217.504 398.519C217.534 398.419 217.596 398.331 217.68 398.271C224.915 393.212 226.371 380.498 226.23 370.231L217.92 372.818C214.497 373.885 210.898 374.267 207.327 373.942C203.756 373.617 200.285 372.592 197.11 370.925C193.936 369.259 191.121 366.983 188.827 364.228C186.532 361.473 184.803 358.293 183.738 354.869L154.992 262.559C153.925 259.136 153.543 255.536 153.868 251.966C154.192 248.395 155.217 244.923 156.884 241.749C158.551 238.574 160.827 235.759 163.582 233.464C166.338 231.17 169.518 229.44 172.941 228.375L322.678 181.748C326.101 180.681 329.701 180.299 333.271 180.624C336.842 180.949 340.314 181.974 343.489 183.641C346.663 185.307 349.478 187.584 351.773 190.339C354.067 193.094 355.797 196.274 356.862 199.698Z" fill="#418DF9"/>
<path d="M251.112 232.759L170.928 257.696C170.612 257.794 170.435 258.131 170.534 258.447L174.738 271.967C174.837 272.283 175.173 272.46 175.489 272.362L255.673 247.425C255.99 247.327 256.167 246.99 256.068 246.674L251.864 233.154C251.765 232.837 251.429 232.661 251.112 232.759Z" fill="white"/>
<path d="M352.301 241.328L182.385 294.241C182.068 294.34 181.892 294.676 181.99 294.992L186.199 308.509C186.298 308.825 186.634 309.002 186.951 308.903L356.867 255.99C357.183 255.892 357.36 255.555 357.261 255.239L353.052 241.722C352.954 241.406 352.617 241.229 352.301 241.328Z" fill="#D4E5FF"/>
<path d="M363.7 278.172L193.744 331.028C193.427 331.126 193.251 331.462 193.349 331.779L197.554 345.299C197.652 345.615 197.988 345.792 198.305 345.694L368.261 292.838C368.578 292.74 368.754 292.403 368.656 292.087L364.451 278.567C364.353 278.251 364.017 278.074 363.7 278.172Z" fill="#D4E5FF"/>
</svg>
