<svg width="360" height="360" viewBox="0 0 360 360" fill="none" xmlns="http://www.w3.org/2000/svg">
<path d="M275.733 139.873C275.733 139.873 243.54 168.13 280.608 228.639C313.529 282.376 239.534 305.67 207.649 299.433C166.344 291.353 142.628 239.145 111.041 255.688C79.4531 272.23 48.1605 197.269 94.1075 169.686C151.264 135.373 114.582 115.434 119.715 90.2749C123.399 72.2186 175.829 44.3016 204.099 76.1463C227.888 102.943 239.554 93.3565 250.427 89.7792C266.109 84.6197 300.339 111.457 275.733 139.873Z" fill="#DEE9FF"/>
<path d="M184.584 171.716L174.037 214.978C173.645 216.582 173.573 218.248 173.826 219.88C174.078 221.512 174.65 223.079 175.508 224.49C176.366 225.901 177.493 227.129 178.826 228.104C180.159 229.079 181.67 229.782 183.275 230.173L235.73 242.961C237.079 257.77 249.334 258.865 254.17 259.372C254.217 259.375 254.264 259.362 254.304 259.335C254.343 259.308 254.372 259.269 254.387 259.223C254.402 259.178 254.401 259.129 254.385 259.084C254.369 259.039 254.339 259.001 254.299 258.975C250.827 256.858 249.79 251.056 249.558 246.333L253.453 247.282C255.057 247.673 256.723 247.745 258.355 247.493C259.987 247.24 261.553 246.669 262.964 245.811C264.375 244.953 265.604 243.825 266.579 242.493C267.554 241.16 268.257 239.648 268.648 238.043L279.195 194.781C279.586 193.176 279.658 191.511 279.405 189.879C279.153 188.247 278.582 186.68 277.724 185.269C276.866 183.858 275.738 182.63 274.405 181.655C273.073 180.68 271.561 179.976 269.956 179.586L199.779 162.477C198.174 162.085 196.509 162.014 194.877 162.266C193.244 162.519 191.678 163.09 190.267 163.948C188.856 164.806 187.628 165.934 186.653 167.266C185.677 168.599 184.974 170.111 184.584 171.716Z" fill="#A2BDFF"/>
<path d="M271.596 193.058L242.264 185.907C242.071 185.86 241.876 185.978 241.829 186.172L240.324 192.344C240.277 192.537 240.395 192.732 240.589 192.779L269.92 199.93C270.114 199.977 270.308 199.859 270.356 199.665L271.86 193.493C271.907 193.3 271.789 193.105 271.596 193.058Z" fill="white"/>
<path d="M267.408 210.238L187.935 190.863C187.742 190.816 187.547 190.934 187.5 191.127L185.995 197.3C185.948 197.493 186.066 197.688 186.259 197.735L265.732 217.11C265.925 217.157 266.12 217.038 266.167 216.845L267.672 210.673C267.719 210.48 267.601 210.285 267.408 210.238Z" fill="#D4E5FF"/>
<path d="M263.219 227.418L183.746 208.043C183.553 207.996 183.358 208.114 183.311 208.307L181.807 214.48C181.76 214.673 181.878 214.868 182.071 214.915L261.544 234.29C261.737 234.337 261.932 234.218 261.979 234.025L263.484 227.853C263.531 227.66 263.412 227.465 263.219 227.418Z" fill="#D4E5FF"/>
<path d="M214.117 119.819L231.364 175.205C232.005 177.258 232.234 179.418 232.039 181.561C231.844 183.703 231.229 185.786 230.229 187.691C229.229 189.596 227.863 191.285 226.21 192.662C224.557 194.038 222.649 195.076 220.595 195.715L153.441 216.626C152.897 235.989 137.053 238.414 130.808 239.468C130.747 239.476 130.684 239.464 130.63 239.432C130.576 239.4 130.534 239.352 130.511 239.293C130.488 239.235 130.485 239.171 130.503 239.111C130.52 239.051 130.557 238.999 130.608 238.962C134.949 235.927 135.823 228.299 135.738 222.138L130.752 223.691C128.698 224.331 126.539 224.56 124.396 224.365C122.254 224.17 120.171 223.555 118.266 222.555C116.362 221.555 114.673 220.19 113.296 218.537C111.919 216.884 110.882 214.976 110.243 212.922L92.9953 157.536C92.3551 155.482 92.1259 153.322 92.3207 151.179C92.5155 149.037 93.1305 146.954 94.1306 145.049C95.1308 143.144 96.4964 141.455 98.1495 140.079C99.8026 138.702 101.711 137.664 103.765 137.025L193.607 109.049C195.661 108.409 197.82 108.18 199.963 108.374C202.105 108.569 204.189 109.184 206.093 110.184C207.998 111.184 209.687 112.55 211.064 114.203C212.441 115.856 213.478 117.764 214.117 119.819Z" fill="#418DF9"/>
<path d="M150.667 139.655L102.557 154.617C102.367 154.676 102.261 154.878 102.32 155.068L104.843 163.18C104.902 163.37 105.104 163.476 105.294 163.417L153.404 148.455C153.594 148.396 153.7 148.194 153.641 148.004L151.118 139.892C151.059 139.702 150.857 139.596 150.667 139.655Z" fill="white"/>
<path d="M211.381 144.797L109.431 176.545C109.241 176.604 109.135 176.806 109.194 176.995L111.72 185.105C111.779 185.295 111.981 185.401 112.17 185.342L214.12 153.594C214.31 153.535 214.416 153.333 214.357 153.143L211.831 145.033C211.772 144.844 211.57 144.738 211.381 144.797Z" fill="#D4E5FF"/>
<path d="M218.22 166.903L116.246 198.617C116.056 198.676 115.95 198.877 116.009 199.067L118.532 207.179C118.591 207.369 118.793 207.475 118.983 207.416L220.957 175.703C221.147 175.644 221.253 175.442 221.194 175.252L218.671 167.14C218.612 166.95 218.41 166.844 218.22 166.903Z" fill="#D4E5FF"/>
</svg>
